<?xml version="1.0" encoding="UTF-8" standalone="no"?>
<svg width="32px" height="28px" viewBox="0 0 32 28" version="1.1" xmlns="http://www.w3.org/2000/svg" xmlns:xlink="http://www.w3.org/1999/xlink">
    <!-- Generator: Sketch 44.1 (41455) - http://www.bohemiancoding.com/sketch -->
    <title>Love</title>
    <desc>Created with Sketch.</desc>
    <defs></defs>
    <g id="Page-2-Copy" stroke="none" stroke-width="1" fill="none" fill-rule="evenodd">
        <g id="56" stroke="#979797" transform="translate(0.000000, -2.000000)" fill-rule="nonzero" fill="#95909E">
            <path d="M16.0012649,27 L28.2682796,13.9256514 C30.5797458,11.6597482 30.5765008,7.97319845 28.262969,5.70527046 C25.9453869,3.4333719 22.1914533,3.43151923 19.8772917,5.70006463 L16.0012647,9.49968832 L12.1252376,5.70006463 C9.81377143,3.43416149 6.05309203,3.43734247 3.73956025,5.70527046 C1.42197807,7.97716902 1.42008814,11.657106 3.73424975,13.9256514 L16.0012649,27 Z M2.31674467,15.5103653 C-0.774555085,12.4213349 -0.771711302,7.41186051 2.32206257,4.32035787 C5.40954123,1.23514582 10.429454,1.22647608 13.5202909,4.31504388 L16.0012662,6.79419777 L18.4822414,4.31504388 C21.5735412,1.22601354 26.5866959,1.22885523 29.6804698,4.32035787 C32.7679484,7.40556993 32.7766245,12.4217975 29.6857876,15.5103653 L16.0012664,30 L2.31674467,15.5103653 Z" id="Rectangle-467" stroke="none"></path>
        </g>
    </g>
</svg>