<?xml version="1.0" encoding="UTF-8" standalone="no"?>
<svg width="32px" height="32px" viewBox="0 0 32 32" version="1.1" xmlns="http://www.w3.org/2000/svg" xmlns:xlink="http://www.w3.org/1999/xlink">
    <!-- Generator: Sketch 44.1 (41455) - http://www.bohemiancoding.com/sketch -->
    <title>shopping</title>
    <desc>Created with Sketch.</desc>
    <defs></defs>
    <g id="Page-2-Copy" stroke="none" stroke-width="1" fill="none" fill-rule="evenodd">
        <g id="273">
            <path d="M22,19 L29.0034652,19 C29.5538362,19 30,18.5561352 30,18 C30,17.4477153 29.5601869,17 29.0034652,17 L22,17 L22,10.9987461 C22,10.4471539 21.5561352,10 21,10 C20.4477153,10 20,10.4386148 20,10.9987461 L20,17 L12,17 L12,10.9954825 C12,10.4456927 11.5561352,10 11,10 C10.4477153,10 10,10.4386148 10,10.9987461 L10,17 L2.99653482,17 C2.44616384,17 2,17.4438648 2,18 C2,18.5522847 2.43981314,19 2.99653482,19 L10,19 L10,24 L4.00069463,24 C3.44802625,24 3,24.4438648 3,25 C3,25.5522847 3.44746922,26 4.00069463,26 L10,26 L10,30.0012539 C10,30.5528461 10.4438648,31 11,31 C11.5522847,31 12,30.5528945 12,30.0045175 L12,26 L20,26 L20,30.0012539 C20,30.5528461 20.4438648,31 21,31 C21.5522847,31 22,30.5613852 22,30.0012539 L22,26 L27.9993054,26 C28.5519738,26 29,25.5561352 29,25 C29,24.4477153 28.5525308,24 27.9993054,24 L22,24 L22,19 Z M20,24 L20,19 L12,19 L12,20.5 L12,24 L20,24 L20,24 Z" id="Rectangle-1253" fill="#2A2630"></path>
            <path d="M24.3647888,9.82798508 L19.3672621,1.17201492 C19.0904367,0.692539335 18.4816272,0.525779988 18,0.803847577 C17.5217074,1.07998995 17.3618551,1.69854814 17.6352112,2.17201492 L22.1547005,10 L9.84529946,10 L14.3647888,2.17201492 C14.6416141,1.69253934 14.4816272,1.08191517 14,0.803847577 C13.5217074,0.527705202 12.9060941,0.698548143 12.6327379,1.17201492 L7.63521124,9.82798508 C7.60299196,9.88379051 7.57668987,9.94137251 7.55612336,10 L0.850355294,10 C0.296843515,10 -0.0712055482,10.4394583 0.029483338,10.9880336 L3.70479932,31.0119664 C3.80495603,31.5576423 4.32735516,32 4.88108797,32 L27.1193034,32 C27.668793,32 28.1949032,31.5605417 28.2955921,31.0119664 L31.970908,10.9880336 C32.0710648,10.4423577 31.6955966,10 31.1500361,10 L24.4433552,10 C24.4230166,9.94118714 24.3968898,9.88358567 24.3647888,9.82798508 Z M26.45594,30.0002079 L5.55370729,30.0067579 L2.24995596,12.0071913 L29.7547253,11.9838191 L26.45594,30.0002079 Z" id="Rectangle-1255" fill="#95909E"></path>
        </g>
    </g>
</svg>